<svg width="122" height="122" viewBox="0 0 122 122" fill="none" xmlns="http://www.w3.org/2000/svg">
<circle cx="61.2297" cy="61" r="60.5" fill="#153D5C"/>
<path d="M30.2847 45.5275C30.2847 47.8724 31.2162 50.1212 32.8743 51.7793C34.5324 53.4374 36.7812 54.3689 39.1261 54.3689C41.471 54.3689 43.7199 53.4374 45.378 51.7793C47.0361 50.1212 47.9676 47.8724 47.9676 45.5275C47.9676 43.1826 47.0361 40.9337 45.378 39.2756C43.7199 37.6175 41.471 36.686 39.1261 36.686C36.7812 36.686 34.5324 37.6175 32.8743 39.2756C31.2162 40.9337 30.2847 43.1826 30.2847 45.5275Z" stroke="#FCFCFC" stroke-width="3" stroke-linecap="round" stroke-linejoin="round"/>
<path d="M50.1779 76.4726V69.8415C50.1779 66.9103 49.0135 64.0993 46.9408 62.0265C44.8682 59.9541 42.0572 58.7897 39.126 58.7897C36.1949 58.7897 33.3838 59.9541 31.3112 62.0265C29.2386 64.0993 28.0742 66.9103 28.0742 69.8415V76.4726H32.4949L34.7053 94.1555H43.5468L45.7571 76.4726H50.1779Z" stroke="#FCFCFC" stroke-width="3" stroke-linecap="round" stroke-linejoin="round"/>
<path d="M72.1455 41.1073H80.987M72.1455 49.9488H80.987M76.5662 27.8451C73.1693 27.8299 69.8408 28.7979 66.9818 30.6322C64.1228 32.4665 61.8555 35.0888 60.4536 38.1828C59.0516 41.2769 58.5748 44.7104 59.0805 48.0694C59.5862 51.4284 61.053 54.5693 63.3041 57.1134L61.0937 69.8421L72.6229 62.7336C75.0567 63.3106 77.5851 63.3646 80.0412 62.8921C82.4974 62.42 84.8256 61.4318 86.8715 59.9936C88.9177 58.5551 90.6356 56.699 91.9115 54.5476C93.1873 52.3963 93.9921 49.9988 94.273 47.5135C94.5542 45.0281 94.3045 42.5115 93.5409 40.1297C92.7776 37.7479 91.5174 35.5552 89.844 33.6963C88.1703 31.8375 86.1218 30.3548 83.833 29.3461C81.544 28.3375 79.0675 27.8259 76.5662 27.8451Z" stroke="#FCFCFC" stroke-width="3" stroke-linecap="round" stroke-linejoin="round"/>
</svg>
