<svg width="62" height="61" viewBox="0 0 62 61" fill="none" xmlns="http://www.w3.org/2000/svg">
<g clip-path="url(#clip0_160_557)">
<path d="M31 0C13.8793 0 0 13.6555 0 30.5C0 44.8033 10.0093 56.8056 23.5116 60.1021V39.8208H17.1194V30.5H23.5116V26.4838C23.5116 16.1028 28.2869 11.2911 38.6458 11.2911C40.61 11.2911 43.9989 11.6705 45.3852 12.0487V20.4972C44.6536 20.4216 43.3826 20.3838 41.8041 20.3838C36.7214 20.3838 34.7572 22.2784 34.7572 27.2036V30.5H44.883L43.1433 39.8208H34.7572V60.7767C50.1072 58.9528 62.0012 46.094 62.0012 30.5C62 13.6555 48.1207 0 31 0Z" fill="#D6D6D6"/>
</g>
<defs>
<clipPath id="clip0_160_557">
<rect width="62" height="61" fill="white"/>
</clipPath>
</defs>
</svg>
