<svg width="62" height="61" viewBox="0 0 62 61" fill="none" xmlns="http://www.w3.org/2000/svg">
<g clip-path="url(#clip0_160_555)">
<rect width="62" height="61" fill="#153D5C"/>
<path d="M31 5.49238C39.2828 5.49238 40.2637 5.52812 43.5211 5.67109C46.5484 5.80215 48.1832 6.30254 49.273 6.71953C50.7141 7.26758 51.7555 7.93477 52.8332 8.99512C53.923 10.0674 54.5891 11.0801 55.1461 12.4979C55.5699 13.5701 56.0785 15.1904 56.2117 18.157C56.357 21.3738 56.3934 22.3389 56.3934 30.4762C56.3934 38.6254 56.357 39.5904 56.2117 42.7953C56.0785 45.7738 55.5699 47.3822 55.1461 48.4545C54.5891 49.8723 53.9109 50.8969 52.8332 51.9572C51.7434 53.0295 50.7141 53.6848 49.273 54.2328C48.1832 54.6498 46.5363 55.1502 43.5211 55.2812C40.2516 55.4242 39.2707 55.46 31 55.46C22.7172 55.46 21.7363 55.4242 18.4789 55.2812C15.4516 55.1502 13.8168 54.6498 12.727 54.2328C11.2859 53.6848 10.2445 53.0176 9.1668 51.9572C8.07695 50.885 7.41094 49.8723 6.85391 48.4545C6.43008 47.3822 5.92148 45.7619 5.78828 42.7953C5.64297 39.5785 5.60664 38.6135 5.60664 30.4762C5.60664 22.327 5.64297 21.3619 5.78828 18.157C5.92148 15.1785 6.43008 13.5701 6.85391 12.4979C7.41094 11.0801 8.08906 10.0555 9.1668 8.99512C10.2566 7.92285 11.2859 7.26758 12.727 6.71953C13.8168 6.30254 15.4637 5.80215 18.4789 5.67109C21.7363 5.52812 22.7172 5.49238 31 5.49238ZM31 0C22.584 0 21.5305 0.0357422 18.2246 0.178711C14.9309 0.32168 12.6664 0.845898 10.7047 1.59648C8.6582 2.38281 6.92656 3.41934 5.20703 5.12305C3.47539 6.81484 2.42188 8.51856 1.62266 10.5201C0.859766 12.4621 0.326953 14.6781 0.181641 17.9187C0.0363281 21.1832 0 22.2197 0 30.5C0 38.7803 0.0363281 39.8168 0.181641 43.0693C0.326953 46.31 0.859766 48.5379 1.62266 50.468C2.42188 52.4814 3.47539 54.1852 5.20703 55.8769C6.92656 57.5687 8.6582 58.6172 10.6926 59.3916C12.6664 60.1422 14.9187 60.6664 18.2125 60.8094C21.5184 60.9523 22.5719 60.9881 30.9879 60.9881C39.4039 60.9881 40.4574 60.9523 43.7633 60.8094C47.057 60.6664 49.3215 60.1422 51.2832 59.3916C53.3176 58.6172 55.0492 57.5687 56.7687 55.8769C58.4883 54.1852 59.5539 52.4814 60.341 50.4799C61.1039 48.5379 61.6367 46.3219 61.782 43.0812C61.9273 39.8287 61.9637 38.7922 61.9637 30.5119C61.9637 22.2316 61.9273 21.1951 61.782 17.9426C61.6367 14.702 61.1039 12.474 60.341 10.5439C59.5781 8.51855 58.5246 6.81484 56.793 5.12305C55.0734 3.43125 53.3418 2.38281 51.3074 1.6084C49.3336 0.857812 47.0812 0.333594 43.7875 0.190625C40.4695 0.0357422 39.416 0 31 0Z" fill="#D6D6D6"/>
<path d="M31 14.833C22.2086 14.833 15.0762 21.8504 15.0762 30.5C15.0762 39.1496 22.2086 46.167 31 46.167C39.7914 46.167 46.9238 39.1496 46.9238 30.5C46.9238 21.8504 39.7914 14.833 31 14.833ZM31 40.6627C25.2965 40.6627 20.6707 36.1115 20.6707 30.5C20.6707 24.8885 25.2965 20.3373 31 20.3373C36.7035 20.3373 41.3293 24.8885 41.3293 30.5C41.3293 36.1115 36.7035 40.6627 31 40.6627Z" fill="#D6D6D6"/>
<path d="M51.2711 14.2133C51.2711 16.2387 49.6 17.8709 47.5535 17.8709C45.4949 17.8709 43.8359 16.2268 43.8359 14.2133C43.8359 12.1879 45.507 10.5557 47.5535 10.5557C49.6 10.5557 51.2711 12.1998 51.2711 14.2133Z" fill="#D6D6D6"/>
</g>
<defs>
<clipPath id="clip0_160_555">
<rect width="62" height="61" fill="white"/>
</clipPath>
</defs>
</svg>
