<svg width="62" height="61" viewBox="0 0 62 61" fill="none" xmlns="http://www.w3.org/2000/svg">
<g clip-path="url(#clip0_160_556)">
<rect width="62" height="61" fill="#153D5C"/>
<path d="M57.4105 0H4.57734C2.04648 0 0 1.96582 0 4.39629V56.5918C0 59.0223 2.04648 61 4.57734 61H57.4105C59.9414 61 62 59.0223 62 56.6037V4.39629C62 1.96582 59.9414 0 57.4105 0ZM18.3941 51.9811H9.19102V22.8631H18.3941V51.9811ZM13.7926 18.8957C10.8379 18.8957 8.45234 16.5486 8.45234 13.6535C8.45234 10.7584 10.8379 8.41133 13.7926 8.41133C16.7352 8.41133 19.1207 10.7584 19.1207 13.6535C19.1207 16.5367 16.7352 18.8957 13.7926 18.8957ZM52.8332 51.9811H43.6422V37.8271C43.6422 34.4555 43.5816 30.1068 38.859 30.1068C34.0758 30.1068 33.3492 33.7883 33.3492 37.5889V51.9811H24.1703V22.8631H32.9859V26.8424H33.107C34.3301 24.5549 37.3332 22.1363 41.8016 22.1363C51.1137 22.1363 52.8332 28.1648 52.8332 36.0043V51.9811Z" fill="#D6D6D6"/>
</g>
<defs>
<clipPath id="clip0_160_556">
<rect width="62" height="61" fill="white"/>
</clipPath>
</defs>
</svg>
