<svg width="296" height="101" viewBox="0 0 296 101" fill="none" xmlns="http://www.w3.org/2000/svg">
<path d="M35.795 16.3496L36.7624 16.5431L37.8266 17.2203L39.568 18.5747L41.4061 19.9291L43.1475 21.2835L44.9856 22.6379L46.1465 23.5086L47.7911 24.7663L52.0479 27.9588L53.3055 28.9262L55.1436 30.2806L56.4013 31.2481L58.2394 32.6025L59.4971 33.5699L61.5287 35.1178L62.8831 36.0852L64.1408 37.0527L66.1724 38.6006L67.5268 39.568L68.7844 40.5354L72.6542 43.4377L74.6858 44.9856L76.2337 46.1465L76.4272 46.4368V75.363L76.2337 76.6207L75.6532 77.4914L74.976 77.8783L74.4923 78.0718H73.6216L72.4607 77.4914L70.4291 75.9435L67.3333 73.6216L67.43 74.2988V78.4588L67.3333 82.7155L66.7528 83.6829L66.0756 84.2634L65.4952 84.4569H64.431L63.2701 83.7797L61.8189 82.6188L60.7547 81.8448L59.5938 80.9741L57.8525 79.6197L56.0143 78.2653L53.9827 76.7174L52.1446 75.363L50.8869 74.3956L49.0488 73.0412L47.3074 71.6868L45.4693 70.3324L44.2116 69.3649L42.3735 68.0105L41.1159 67.0431L35.3113 62.6897L33.2797 61.1418L31.4415 59.7873L30.1839 58.8199L28.1523 57.272L26.3141 55.9176L24.6695 54.66L24.5728 54.5632V49.0488L24.6695 24.5728L25.0565 23.7988L25.8304 23.1216L26.6044 22.8314L27.5718 22.9282L28.4425 23.4119L30.4741 24.9598L32.409 26.4109L33.4731 27.2816L33.5699 27.1849V18.5747L33.8601 17.704L34.4406 16.9301L35.3113 16.4464L35.795 16.3496ZM38.3103 23.7021V30.9578L39.8582 32.1188L41.1159 33.0862L43.1475 34.6341L44.9856 35.9885L46.6302 37.2462L48.1781 38.4071L50.0162 39.7615L51.2739 40.7289L52.4348 41.5996L53.6925 42.567L56.7883 44.8889L58.2394 45.9531L59.7873 47.114L61.432 48.3716L63.2701 49.726L64.5277 50.6935L67.2366 52.7251L67.3333 53.3055V67.5268L67.7203 68.0105L69.1714 69.0747L71.0095 70.4291L71.59 70.8161L71.6867 48.6619L70.7193 47.8879L68.8812 46.5335L67.1398 45.1791L65.3017 43.8247L64.044 42.8573L62.0124 41.3094L60.1743 39.955L58.9166 38.9875L57.3687 37.8266L55.5306 36.4722L54.2729 35.5048L52.4348 34.1504L51.1772 33.1829L49.2423 31.7318L47.2107 30.1839L44.5019 28.1523L42.6638 26.7979L40.6321 25.25L38.5038 23.7021H38.3103ZM29.3132 30.0872V52.3381L30.8611 53.499L32.2155 54.5632L33.9569 55.8209L36.8592 58.046L39.9549 60.3678L41.7931 61.7222L43.4377 62.9799L47.6944 66.1724L49.339 67.4301L56.6915 72.9444L58.1427 74.0086L61.045 76.2337L62.3994 77.2979H62.6896V70.1389L61.7222 69.2682L60.658 68.4942L58.9166 67.1398L57.0785 65.7854L55.4339 64.5278L51.9511 61.9157L50.6934 60.9483L48.8553 59.5939L46.8237 58.046L43.7279 55.7241L41.8898 54.3697L40.1484 53.0153L38.3103 51.6609L35.2145 49.3391L33.8601 48.2749H33.6666V33.2797L32.6024 32.409L30.7643 31.0546L29.6034 30.1839L29.3132 30.0872ZM38.3103 36.8592V45.8563L39.8582 47.0172L41.5028 48.2749L43.0507 49.4358L44.3084 50.4033L46.1465 51.7577L49.6293 54.3697L51.6609 55.9176L53.2088 57.0785L55.0469 58.4329L56.3046 59.4004L58.1427 60.7548L59.6906 61.9157L62.2059 63.8506L62.6896 64.1408V55.0469L61.6254 54.273L60.271 53.2088L58.4329 51.8544L56.6915 50.5L52.8218 47.5977L50.7902 46.0498L49.726 45.2759L48.0814 44.0182L46.2433 42.6638L44.2116 41.1159L43.1475 40.3419L41.5996 39.181L39.7615 37.8266L38.5038 36.8592H38.3103Z" fill="#D6D6D6"/>
<path d="M26.6044 22.8313L27.5718 22.928L28.4425 23.4118L30.4741 24.9597L32.409 26.4108L33.4731 27.2815L33.8601 27.3782L34.7308 28.1522L35.795 28.9261L37.3429 30.087L38.0201 30.5708H38.3103L38.407 30.9577L39.4712 31.7317L40.7289 32.6991L42.6637 34.1503L44.6954 35.6982L46.5335 37.0526L47.7911 38.02L49.6293 39.3744L51.2739 40.6321L52.4348 41.5028L53.6925 42.4702L56.7883 44.792L58.2394 45.8562L59.7873 47.0171L61.4319 48.2748L63.2701 49.6292L64.5277 50.5966L66.0756 51.7575L67.3333 52.725L67.43 53.3054V67.2365L67.3333 67.43L66.8496 67.2365L63.7538 64.9146L62.6896 64.1407L62.5929 62.5928L62.6896 55.0468L62.2059 54.8533L60.658 53.5957L58.8199 52.2413L57.0785 50.8869L52.8218 47.6943L50.7902 46.1464L49.726 45.3725L48.0814 44.1148L46.2432 42.7604L44.2116 41.2125L43.1475 40.4386L41.5996 39.2777L38.3103 36.8591L38.2136 37.0526L38.0201 36.6656L36.2787 35.4079L34.4406 34.0535L33.6666 33.4731L33.1829 32.9893L31.4415 31.6349L30.0871 30.6675L29.3132 30.087L29.4099 52.338L30.7643 53.3054L31.8285 54.1761L33.5699 55.4338L34.8275 56.4012L36.7624 57.8524L38.407 59.11L39.9549 60.271L41.7931 61.6254L43.4377 62.883L47.6944 66.0756L49.339 67.3332L56.6915 72.8476L58.1427 73.9118L61.045 76.1369L62.3994 77.201L62.6896 77.2978L62.5929 76.3303V73.7183L62.6896 70.2355L62.7864 70.429L63.2701 70.6225L65.1082 71.8801L66.2691 72.8476L67.3333 73.6215L67.43 74.2987V78.4587L67.3333 82.7154L66.7528 83.6828L66.0756 84.2633L65.4952 84.4568H64.431L63.2701 83.7796L61.8189 82.6187L60.7547 81.8447L59.5938 80.974L57.8524 79.6196L56.0143 78.2652L53.9827 76.7173L52.1446 75.3629L50.8869 74.3955L49.0488 73.0411L47.3074 71.6867L45.4693 70.3323L44.2116 69.3648L42.3735 68.0104L41.1159 67.043L35.3113 62.6895L33.2796 61.1416L31.4415 59.7872L30.1839 58.8198L28.1523 57.2719L26.3141 55.9175L24.6695 54.6598L24.5728 54.5631V49.0487L24.6695 24.5727L25.0565 23.7987L25.8304 23.1215L26.6044 22.8313Z" fill="#D6D6D6"/>
<path d="M106.697 33.7179V54.0815H103.009V33.7179H106.697ZM127.426 33.7179V54.0815H124.145L114.55 40.2108H114.381V54.0815H110.692V33.7179H113.993L123.578 47.5986H123.757V33.7179H127.426ZM148.18 33.7179V54.0815H144.899L135.304 40.2108H135.135V54.0815H131.446V33.7179H134.747L144.332 47.5986H144.511V33.7179H148.18ZM170.396 43.8997C170.396 46.0939 169.985 47.9731 169.163 49.5375C168.348 51.0953 167.234 52.2885 165.822 53.1171C164.417 53.9457 162.823 54.36 161.039 54.36C159.256 54.36 157.659 53.9457 156.247 53.1171C154.842 52.2818 153.728 51.0853 152.906 49.5276C152.091 47.9632 151.683 46.0872 151.683 43.8997C151.683 41.7056 152.091 39.8296 152.906 38.2719C153.728 36.7075 154.842 35.511 156.247 34.6824C157.659 33.8538 159.256 33.4395 161.039 33.4395C162.823 33.4395 164.417 33.8538 165.822 34.6824C167.234 35.511 168.348 36.7075 169.163 38.2719C169.985 39.8296 170.396 41.7056 170.396 43.8997ZM166.687 43.8997C166.687 42.3552 166.445 41.0527 165.961 39.9921C165.484 38.9248 164.821 38.1194 163.973 37.5759C163.124 37.0257 162.146 36.7506 161.039 36.7506C159.932 36.7506 158.955 37.0257 158.106 37.5759C157.258 38.1194 156.592 38.9248 156.108 39.9921C155.63 41.0527 155.392 42.3552 155.392 43.8997C155.392 45.4442 155.63 46.7501 156.108 47.8173C156.592 48.8779 157.258 49.6833 158.106 50.2335C158.955 50.7771 159.932 51.0489 161.039 51.0489C162.146 51.0489 163.124 50.7771 163.973 50.2335C164.821 49.6833 165.484 48.8779 165.961 47.8173C166.445 46.7501 166.687 45.4442 166.687 43.8997ZM175.514 33.7179L180.814 49.7463H181.023L186.312 33.7179H190.369L183.19 54.0815H178.636L171.467 33.7179H175.514ZM193.288 54.0815H189.35L196.519 33.7179H201.073L208.252 54.0815H204.315L198.876 37.894H198.717L193.288 54.0815ZM193.417 46.0972H204.156V49.0602H193.417V46.0972ZM210.934 54.0815V33.7179H218.571C220.135 33.7179 221.448 33.9897 222.508 34.5332C223.575 35.0768 224.381 35.8391 224.924 36.8202C225.475 37.7946 225.75 38.9314 225.75 40.2307C225.75 41.5366 225.471 42.6701 224.914 43.6313C224.364 44.5858 223.552 45.3249 222.478 45.8486C221.404 46.3656 220.085 46.6242 218.521 46.6242H213.082V43.5617H218.024C218.939 43.5617 219.688 43.4357 220.271 43.1838C220.854 42.9253 221.285 42.5508 221.564 42.0602C221.849 41.5631 221.991 40.9532 221.991 40.2307C221.991 39.5082 221.849 38.8917 221.564 38.3813C221.279 37.8642 220.844 37.4731 220.261 37.208C219.678 36.9362 218.925 36.8003 218.004 36.8003H214.623V54.0815H210.934ZM221.454 44.8543L226.495 54.0815H222.379L217.427 44.8543H221.454ZM229.145 54.0815V33.7179H242.39V36.8102H232.834V42.3386H241.703V45.431H232.834V50.9892H242.469V54.0815H229.145ZM261.132 33.7179H264.792V48.0361C264.785 49.3486 264.507 50.4788 263.956 51.4267C263.406 52.368 262.637 53.0939 261.65 53.6043C260.668 54.1081 259.525 54.36 258.219 54.36C257.026 54.36 255.952 54.1478 254.998 53.7236C254.05 53.2927 253.297 52.6564 252.74 51.8145C252.184 50.9726 251.905 49.9253 251.905 48.6725H255.574C255.581 49.2226 255.7 49.6966 255.932 50.0943C256.171 50.4921 256.499 50.797 256.917 51.0091C257.334 51.2212 257.815 51.3273 258.358 51.3273C258.948 51.3273 259.449 51.2046 259.86 50.9594C260.271 50.7075 260.582 50.3363 260.794 49.8457C261.013 49.3552 261.126 48.752 261.132 48.0361V33.7179ZM268.794 54.0815V33.7179H276.43C277.994 33.7179 279.307 33.9897 280.368 34.5332C281.435 35.0768 282.24 35.8391 282.784 36.8202C283.334 37.7946 283.609 38.9314 283.609 40.2307C283.609 41.5366 283.331 42.6701 282.774 43.6313C282.224 44.5858 281.412 45.3249 280.338 45.8486C279.264 46.3656 277.945 46.6242 276.38 46.6242H270.941V43.5617H275.883C276.798 43.5617 277.547 43.4357 278.13 43.1838C278.714 42.9253 279.145 42.5508 279.423 42.0602C279.708 41.5631 279.85 40.9532 279.85 40.2307C279.85 39.5082 279.708 38.8917 279.423 38.3813C279.138 37.8642 278.704 37.4731 278.12 37.208C277.537 36.9362 276.785 36.8003 275.863 36.8003H272.483V54.0815H268.794ZM279.314 44.8543L284.355 54.0815H280.238L275.287 44.8543H279.314ZM289.063 54.3003C288.46 54.3003 287.943 54.0882 287.512 53.6639C287.081 53.2397 286.869 52.7226 286.875 52.1128C286.869 51.5162 287.081 51.0058 287.512 50.5815C287.943 50.1573 288.46 49.9452 289.063 49.9452C289.646 49.9452 290.153 50.1573 290.584 50.5815C291.022 51.0058 291.244 51.5162 291.25 52.1128C291.244 52.5171 291.138 52.885 290.932 53.2165C290.733 53.5479 290.468 53.8131 290.137 54.0119C289.812 54.2042 289.454 54.3003 289.063 54.3003Z" fill="#D6D6D6"/>
<path d="M111.773 71.5923H110.364C110.28 71.187 110.134 70.8309 109.926 70.5241C109.722 70.2173 109.472 69.9597 109.176 69.7514C108.884 69.5393 108.561 69.3802 108.205 69.2741C107.848 69.168 107.477 69.115 107.091 69.115C106.386 69.115 105.748 69.293 105.176 69.6491C104.608 70.0052 104.155 70.5298 103.818 71.223C103.485 71.9161 103.318 72.7665 103.318 73.7741C103.318 74.7817 103.485 75.6321 103.818 76.3252C104.155 77.0184 104.608 77.543 105.176 77.8991C105.748 78.2552 106.386 78.4332 107.091 78.4332C107.477 78.4332 107.848 78.3802 108.205 78.2741C108.561 78.168 108.884 78.0108 109.176 77.8025C109.472 77.5904 109.722 77.3309 109.926 77.0241C110.134 76.7135 110.28 76.3574 110.364 75.9559H111.773C111.667 76.5506 111.473 77.0828 111.193 77.5525C110.913 78.0222 110.564 78.4218 110.148 78.7514C109.731 79.0771 109.263 79.3252 108.744 79.4957C108.229 79.6661 107.678 79.7514 107.091 79.7514C106.098 79.7514 105.216 79.509 104.443 79.0241C103.67 78.5393 103.063 77.8499 102.619 76.9559C102.176 76.062 101.955 75.0014 101.955 73.7741C101.955 72.5468 102.176 71.4862 102.619 70.5923C103.063 69.6983 103.67 69.009 104.443 68.5241C105.216 68.0393 106.098 67.7968 107.091 67.7968C107.678 67.7968 108.229 67.8821 108.744 68.0525C109.263 68.223 109.731 68.473 110.148 68.8025C110.564 69.1283 110.913 69.526 111.193 69.9957C111.473 70.4616 111.667 70.9938 111.773 71.5923ZM117.413 79.7741C116.625 79.7741 115.934 79.5866 115.339 79.2116C114.749 78.8366 114.286 78.312 113.953 77.6377C113.624 76.9635 113.459 76.1756 113.459 75.2741C113.459 74.365 113.624 73.5715 113.953 72.8934C114.286 72.2154 114.749 71.6889 115.339 71.3139C115.934 70.9389 116.625 70.7514 117.413 70.7514C118.201 70.7514 118.891 70.9389 119.482 71.3139C120.076 71.6889 120.538 72.2154 120.868 72.8934C121.201 73.5715 121.368 74.365 121.368 75.2741C121.368 76.1756 121.201 76.9635 120.868 77.6377C120.538 78.312 120.076 78.8366 119.482 79.2116C118.891 79.5866 118.201 79.7741 117.413 79.7741ZM117.413 78.5696C118.012 78.5696 118.504 78.4161 118.891 78.1093C119.277 77.8025 119.563 77.3991 119.749 76.8991C119.934 76.3991 120.027 75.8574 120.027 75.2741C120.027 74.6908 119.934 74.1472 119.749 73.6434C119.563 73.1396 119.277 72.7324 118.891 72.4218C118.504 72.1112 118.012 71.9559 117.413 71.9559C116.815 71.9559 116.322 72.1112 115.936 72.4218C115.55 72.7324 115.264 73.1396 115.078 73.6434C114.893 74.1472 114.8 74.6908 114.8 75.2741C114.8 75.8574 114.893 76.3991 115.078 76.8991C115.264 77.3991 115.55 77.8025 115.936 78.1093C116.322 78.4161 116.815 78.5696 117.413 78.5696ZM124.756 74.3423V79.5923H123.415V70.865H124.71V72.2286H124.824C125.028 71.7855 125.339 71.4294 125.756 71.1605C126.172 70.8877 126.71 70.7514 127.369 70.7514C127.96 70.7514 128.477 70.8726 128.92 71.115C129.364 71.3536 129.708 71.7173 129.955 72.2059C130.201 72.6908 130.324 73.3044 130.324 74.0468V79.5923H128.983V74.1377C128.983 73.4521 128.805 72.918 128.449 72.5355C128.093 72.1491 127.604 71.9559 126.983 71.9559C126.555 71.9559 126.172 72.0487 125.835 72.2343C125.502 72.4199 125.239 72.6908 125.045 73.0468C124.852 73.4029 124.756 73.8347 124.756 74.3423ZM138.956 72.8196L137.751 73.1605C137.676 72.9597 137.564 72.7646 137.416 72.5752C137.272 72.3821 137.075 72.223 136.825 72.098C136.575 71.973 136.255 71.9105 135.865 71.9105C135.331 71.9105 134.886 72.0336 134.53 72.2798C134.178 72.5222 134.001 72.8309 134.001 73.2059C134.001 73.5393 134.123 73.8025 134.365 73.9957C134.607 74.1889 134.986 74.3499 135.501 74.4786L136.797 74.7968C137.577 74.9862 138.159 75.276 138.541 75.6661C138.924 76.0525 139.115 76.5506 139.115 77.1605C139.115 77.6605 138.971 78.1074 138.683 78.5014C138.399 78.8953 138.001 79.2059 137.49 79.4332C136.979 79.6605 136.384 79.7741 135.706 79.7741C134.816 79.7741 134.079 79.5809 133.496 79.1946C132.912 78.8082 132.543 78.2438 132.388 77.5014L133.661 77.1832C133.782 77.6529 134.011 78.0052 134.348 78.24C134.689 78.4749 135.134 78.5923 135.683 78.5923C136.308 78.5923 136.804 78.4597 137.172 78.1946C137.543 77.9256 137.729 77.6036 137.729 77.2286C137.729 76.9256 137.623 76.6718 137.411 76.4673C137.198 76.259 136.873 76.1036 136.433 76.0014L134.979 75.6605C134.179 75.4711 133.592 75.1775 133.217 74.7798C132.846 74.3783 132.661 73.8764 132.661 73.2741C132.661 72.7817 132.799 72.3461 133.075 71.9673C133.356 71.5885 133.736 71.2911 134.217 71.0752C134.702 70.8593 135.251 70.7514 135.865 70.7514C136.729 70.7514 137.407 70.9408 137.899 71.3196C138.395 71.6983 138.748 72.1983 138.956 72.8196ZM146.634 76.0241V70.865H147.974V79.5923H146.634V78.115H146.543C146.338 78.5582 146.02 78.9351 145.588 79.2457C145.156 79.5525 144.611 79.7059 143.952 79.7059C143.406 79.7059 142.921 79.5866 142.497 79.348C142.073 79.1055 141.74 78.7419 141.497 78.2571C141.255 77.7684 141.134 77.1529 141.134 76.4105V70.865H142.474V76.3196C142.474 76.9559 142.652 77.4635 143.009 77.8423C143.368 78.2211 143.827 78.4105 144.384 78.4105C144.717 78.4105 145.056 78.3252 145.401 78.1548C145.749 77.9843 146.041 77.723 146.276 77.3707C146.514 77.0184 146.634 76.5696 146.634 76.0241ZM151.771 67.9559V79.5923H150.43V67.9559H151.771ZM158.023 70.865V72.0014H153.5V70.865H158.023ZM154.818 68.7741H156.159V77.0923C156.159 77.4711 156.214 77.7552 156.324 77.9446C156.438 78.1302 156.581 78.2552 156.756 78.3196C156.934 78.3802 157.121 78.4105 157.318 78.4105C157.466 78.4105 157.587 78.4029 157.682 78.3877C157.777 78.3688 157.852 78.3536 157.909 78.3423L158.182 79.5468C158.091 79.5809 157.964 79.615 157.801 79.6491C157.638 79.687 157.432 79.7059 157.182 79.7059C156.803 79.7059 156.432 79.6245 156.068 79.4616C155.708 79.2987 155.409 79.0506 155.17 78.7173C154.936 78.384 154.818 77.9635 154.818 77.4559V68.7741ZM163.491 79.7741C162.704 79.7741 162.012 79.5866 161.418 79.2116C160.827 78.8366 160.365 78.312 160.031 77.6377C159.702 76.9635 159.537 76.1756 159.537 75.2741C159.537 74.365 159.702 73.5715 160.031 72.8934C160.365 72.2154 160.827 71.6889 161.418 71.3139C162.012 70.9389 162.704 70.7514 163.491 70.7514C164.279 70.7514 164.969 70.9389 165.56 71.3139C166.154 71.6889 166.616 72.2154 166.946 72.8934C167.279 73.5715 167.446 74.365 167.446 75.2741C167.446 76.1756 167.279 76.9635 166.946 77.6377C166.616 78.312 166.154 78.8366 165.56 79.2116C164.969 79.5866 164.279 79.7741 163.491 79.7741ZM163.491 78.5696C164.09 78.5696 164.582 78.4161 164.969 78.1093C165.355 77.8025 165.641 77.3991 165.827 76.8991C166.012 76.3991 166.105 75.8574 166.105 75.2741C166.105 74.6908 166.012 74.1472 165.827 73.6434C165.641 73.1396 165.355 72.7324 164.969 72.4218C164.582 72.1112 164.09 71.9559 163.491 71.9559C162.893 71.9559 162.401 72.1112 162.014 72.4218C161.628 72.7324 161.342 73.1396 161.156 73.6434C160.971 74.1472 160.878 74.6908 160.878 75.2741C160.878 75.8574 160.971 76.3991 161.156 76.8991C161.342 77.3991 161.628 77.8025 162.014 78.1093C162.401 78.4161 162.893 78.5696 163.491 78.5696ZM169.493 79.5923V70.865H170.788V72.1832H170.879C171.038 71.7514 171.326 71.401 171.743 71.1321C172.16 70.8631 172.629 70.7286 173.152 70.7286C173.25 70.7286 173.374 70.7305 173.521 70.7343C173.669 70.7381 173.781 70.7438 173.857 70.7514V72.115C173.811 72.1036 173.707 72.0866 173.544 72.0639C173.385 72.0374 173.216 72.0241 173.038 72.0241C172.614 72.0241 172.235 72.1131 171.902 72.2911C171.572 72.4654 171.311 72.7078 171.118 73.0184C170.929 73.3252 170.834 73.6756 170.834 74.0696V79.5923H169.493ZM175.446 79.5923V70.865H176.787V79.5923H175.446ZM176.128 69.4105C175.866 69.4105 175.641 69.3215 175.452 69.1434C175.266 68.9654 175.173 68.7514 175.173 68.5014C175.173 68.2514 175.266 68.0374 175.452 67.8593C175.641 67.6813 175.866 67.5923 176.128 67.5923C176.389 67.5923 176.613 67.6813 176.798 67.8593C176.988 68.0374 177.082 68.2514 177.082 68.5014C177.082 68.7514 176.988 68.9654 176.798 69.1434C176.613 69.3215 176.389 69.4105 176.128 69.4105ZM181.811 79.7968C181.258 79.7968 180.756 79.6927 180.305 79.4843C179.855 79.2722 179.497 78.9673 179.232 78.5696C178.966 78.168 178.834 77.6832 178.834 77.115C178.834 76.615 178.932 76.2097 179.129 75.8991C179.326 75.5847 179.589 75.3385 179.919 75.1605C180.249 74.9824 180.612 74.8499 181.01 74.7627C181.411 74.6718 181.815 74.5999 182.22 74.5468C182.75 74.4786 183.18 74.4275 183.51 74.3934C183.843 74.3555 184.086 74.293 184.237 74.2059C184.393 74.1188 184.47 73.9673 184.47 73.7514V73.7059C184.47 73.1453 184.317 72.7097 184.01 72.3991C183.707 72.0885 183.247 71.9332 182.629 71.9332C181.989 71.9332 181.487 72.0733 181.124 72.3536C180.76 72.634 180.504 72.9332 180.357 73.2514L179.084 72.7968C179.311 72.2665 179.614 71.8536 179.993 71.5582C180.375 71.259 180.792 71.0506 181.243 70.9332C181.697 70.812 182.144 70.7514 182.584 70.7514C182.864 70.7514 183.186 70.7855 183.55 70.8536C183.917 70.918 184.271 71.0525 184.612 71.2571C184.957 71.4616 185.243 71.7703 185.47 72.1832C185.697 72.5961 185.811 73.1491 185.811 73.8423V79.5923H184.47V78.4105H184.402C184.311 78.5999 184.16 78.8025 183.947 79.0184C183.735 79.2343 183.453 79.418 183.101 79.5696C182.749 79.7211 182.319 79.7968 181.811 79.7968ZM182.016 78.5923C182.546 78.5923 182.993 78.4881 183.357 78.2798C183.724 78.0715 184 77.8025 184.186 77.473C184.375 77.1434 184.47 76.7968 184.47 76.4332V75.2059C184.413 75.2741 184.288 75.3366 184.095 75.3934C183.906 75.4465 183.686 75.4938 183.436 75.5355C183.19 75.5733 182.949 75.6074 182.714 75.6377C182.483 75.6643 182.296 75.687 182.152 75.7059C181.804 75.7514 181.478 75.8252 181.175 75.9275C180.875 76.026 180.633 76.1756 180.447 76.3764C180.266 76.5733 180.175 76.8423 180.175 77.1832C180.175 77.6491 180.347 78.0014 180.692 78.24C181.04 78.4749 181.482 78.5923 182.016 78.5923ZM196.418 79.7741C195.577 79.7741 194.851 79.5885 194.241 79.2173C193.635 78.8423 193.168 78.3196 192.838 77.6491C192.512 76.9749 192.349 76.1908 192.349 75.2968C192.349 74.4029 192.512 73.615 192.838 72.9332C193.168 72.2476 193.626 71.7135 194.213 71.3309C194.804 70.9446 195.493 70.7514 196.281 70.7514C196.736 70.7514 197.185 70.8271 197.628 70.9786C198.071 71.1302 198.474 71.3764 198.838 71.7173C199.202 72.0544 199.491 72.5014 199.707 73.0582C199.923 73.615 200.031 74.3006 200.031 75.115V75.6832H193.304V74.5241H198.668C198.668 74.0317 198.569 73.5923 198.372 73.2059C198.179 72.8196 197.902 72.5146 197.543 72.2911C197.187 72.0677 196.766 71.9559 196.281 71.9559C195.747 71.9559 195.285 72.0885 194.895 72.3536C194.509 72.615 194.211 72.9559 194.003 73.3764C193.795 73.7968 193.69 74.2476 193.69 74.7286V75.5014C193.69 76.1605 193.804 76.7192 194.031 77.1775C194.262 77.6321 194.582 77.9786 194.991 78.2173C195.401 78.4521 195.876 78.5696 196.418 78.5696C196.77 78.5696 197.088 78.5203 197.372 78.4218C197.66 78.3196 197.908 78.168 198.116 77.9673C198.325 77.7627 198.486 77.509 198.599 77.2059L199.895 77.5696C199.759 78.009 199.529 78.3953 199.207 78.7286C198.885 79.0582 198.488 79.3158 198.014 79.5014C197.541 79.6832 197.009 79.7741 196.418 79.7741ZM202.071 79.5923V70.865H203.366V72.2286H203.48C203.662 71.7627 203.955 71.401 204.361 71.1434C204.766 70.8821 205.253 70.7514 205.821 70.7514C206.397 70.7514 206.876 70.8821 207.259 71.1434C207.645 71.401 207.946 71.7627 208.162 72.2286H208.253C208.476 71.7779 208.812 71.4199 209.259 71.1548C209.705 70.8858 210.241 70.7514 210.866 70.7514C211.647 70.7514 212.285 70.9957 212.781 71.4843C213.277 71.9692 213.526 72.7249 213.526 73.7514V79.5923H212.185V73.7514C212.185 73.1074 212.009 72.6472 211.656 72.3707C211.304 72.0942 210.889 71.9559 210.412 71.9559C209.798 71.9559 209.323 72.1415 208.986 72.5127C208.649 72.8802 208.48 73.3461 208.48 73.9105V79.5923H207.116V73.615C207.116 73.1188 206.955 72.7192 206.634 72.4161C206.312 72.1093 205.897 71.9559 205.389 71.9559C205.041 71.9559 204.715 72.0487 204.412 72.2343C204.113 72.4199 203.87 72.6775 203.685 73.0071C203.503 73.3328 203.412 73.7097 203.412 74.1377V79.5923H202.071ZM220.659 79.5923V67.9559H224.591C225.504 67.9559 226.25 68.1207 226.83 68.4502C227.413 68.776 227.845 69.2173 228.125 69.7741C228.405 70.3309 228.545 70.9521 228.545 71.6377C228.545 72.3233 228.405 72.9465 228.125 73.5071C227.848 74.0677 227.42 74.5146 226.841 74.848C226.261 75.1775 225.519 75.3423 224.614 75.3423H221.795V74.0923H224.568C225.193 74.0923 225.695 73.9843 226.074 73.7684C226.453 73.5525 226.727 73.2608 226.898 72.8934C227.072 72.5222 227.159 72.1036 227.159 71.6377C227.159 71.1718 227.072 70.7552 226.898 70.3877C226.727 70.0203 226.451 69.7324 226.068 69.5241C225.686 69.312 225.178 69.2059 224.545 69.2059H222.068V79.5923H220.659ZM236.815 72.8196L235.611 73.1605C235.535 72.9597 235.423 72.7646 235.276 72.5752C235.132 72.3821 234.935 72.223 234.685 72.098C234.435 71.973 234.115 71.9105 233.724 71.9105C233.19 71.9105 232.745 72.0336 232.389 72.2798C232.037 72.5222 231.861 72.8309 231.861 73.2059C231.861 73.5393 231.982 73.8025 232.224 73.9957C232.467 74.1889 232.846 74.3499 233.361 74.4786L234.656 74.7968C235.437 74.9862 236.018 75.276 236.401 75.6661C236.783 76.0525 236.974 76.5506 236.974 77.1605C236.974 77.6605 236.83 78.1074 236.543 78.5014C236.259 78.8953 235.861 79.2059 235.349 79.4332C234.838 79.6605 234.243 79.7741 233.565 79.7741C232.675 79.7741 231.938 79.5809 231.355 79.1946C230.772 78.8082 230.402 78.2438 230.247 77.5014L231.52 77.1832C231.641 77.6529 231.87 78.0052 232.207 78.24C232.548 78.4749 232.993 78.5923 233.543 78.5923C234.168 78.5923 234.664 78.4597 235.031 78.1946C235.402 77.9256 235.588 77.6036 235.588 77.2286C235.588 76.9256 235.482 76.6718 235.27 76.4673C235.058 76.259 234.732 76.1036 234.293 76.0014L232.838 75.6605C232.039 75.4711 231.452 75.1775 231.077 74.7798C230.705 74.3783 230.52 73.8764 230.52 73.2741C230.52 72.7817 230.658 72.3461 230.935 71.9673C231.215 71.5885 231.596 71.2911 232.077 71.0752C232.562 70.8593 233.111 70.7514 233.724 70.7514C234.588 70.7514 235.266 70.9408 235.759 71.3196C236.255 71.6983 236.607 72.1983 236.815 72.8196ZM238.993 79.5923V70.865H240.334V79.5923H238.993ZM239.675 69.4105C239.413 69.4105 239.188 69.3215 238.999 69.1434C238.813 68.9654 238.72 68.7514 238.72 68.5014C238.72 68.2514 238.813 68.0374 238.999 67.8593C239.188 67.6813 239.413 67.5923 239.675 67.5923C239.936 67.5923 240.16 67.6813 240.345 67.8593C240.535 68.0374 240.629 68.2514 240.629 68.5014C240.629 68.7514 240.535 68.9654 240.345 69.1434C240.16 69.3215 239.936 69.4105 239.675 69.4105ZM246.335 79.7741C245.517 79.7741 244.813 79.5809 244.222 79.1946C243.631 78.8082 243.176 78.276 242.858 77.598C242.54 76.9199 242.381 76.1453 242.381 75.2741C242.381 74.3877 242.544 73.6055 242.869 72.9275C243.199 72.2457 243.657 71.7135 244.244 71.3309C244.835 70.9446 245.525 70.7514 246.312 70.7514C246.926 70.7514 247.479 70.865 247.972 71.0923C248.464 71.3196 248.867 71.6377 249.182 72.0468C249.496 72.4559 249.691 72.9332 249.767 73.4786H248.426C248.324 73.0809 248.097 72.7286 247.744 72.4218C247.396 72.1112 246.926 71.9559 246.335 71.9559C245.813 71.9559 245.354 72.0923 244.96 72.365C244.57 72.634 244.265 73.0146 244.045 73.5071C243.83 73.9957 243.722 74.5696 243.722 75.2286C243.722 75.9029 243.828 76.49 244.04 76.99C244.256 77.49 244.559 77.8783 244.949 78.1548C245.343 78.4313 245.805 78.5696 246.335 78.5696C246.684 78.5696 247 78.509 247.284 78.3877C247.568 78.2665 247.809 78.0923 248.006 77.865C248.203 77.6377 248.343 77.365 248.426 77.0468H249.767C249.691 77.562 249.504 78.026 249.205 78.4389C248.909 78.848 248.517 79.1737 248.028 79.4161C247.544 79.6548 246.979 79.7741 246.335 79.7741ZM255.273 79.7741C254.485 79.7741 253.794 79.5866 253.199 79.2116C252.608 78.8366 252.146 78.312 251.812 77.6377C251.483 76.9635 251.318 76.1756 251.318 75.2741C251.318 74.365 251.483 73.5715 251.812 72.8934C252.146 72.2154 252.608 71.6889 253.199 71.3139C253.794 70.9389 254.485 70.7514 255.273 70.7514C256.061 70.7514 256.75 70.9389 257.341 71.3139C257.936 71.6889 258.398 72.2154 258.727 72.8934C259.061 73.5715 259.227 74.365 259.227 75.2741C259.227 76.1756 259.061 76.9635 258.727 77.6377C258.398 78.312 257.936 78.8366 257.341 79.2116C256.75 79.5866 256.061 79.7741 255.273 79.7741ZM255.273 78.5696C255.871 78.5696 256.364 78.4161 256.75 78.1093C257.136 77.8025 257.422 77.3991 257.608 76.8991C257.794 76.3991 257.886 75.8574 257.886 75.2741C257.886 74.6908 257.794 74.1472 257.608 73.6434C257.422 73.1396 257.136 72.7324 256.75 72.4218C256.364 72.1112 255.871 71.9559 255.273 71.9559C254.674 71.9559 254.182 72.1112 253.795 72.4218C253.409 72.7324 253.123 73.1396 252.938 73.6434C252.752 74.1472 252.659 74.6908 252.659 75.2741C252.659 75.8574 252.752 76.3991 252.938 76.8991C253.123 77.3991 253.409 77.8025 253.795 78.1093C254.182 78.4161 254.674 78.5696 255.273 78.5696ZM262.615 67.9559V79.5923H261.274V67.9559H262.615ZM268.616 79.7741C267.829 79.7741 267.137 79.5866 266.543 79.2116C265.952 78.8366 265.49 78.312 265.156 77.6377C264.827 76.9635 264.662 76.1756 264.662 75.2741C264.662 74.365 264.827 73.5715 265.156 72.8934C265.49 72.2154 265.952 71.6889 266.543 71.3139C267.137 70.9389 267.829 70.7514 268.616 70.7514C269.404 70.7514 270.094 70.9389 270.685 71.3139C271.279 71.6889 271.741 72.2154 272.071 72.8934C272.404 73.5715 272.571 74.365 272.571 75.2741C272.571 76.1756 272.404 76.9635 272.071 77.6377C271.741 78.312 271.279 78.8366 270.685 79.2116C270.094 79.5866 269.404 79.7741 268.616 79.7741ZM268.616 78.5696C269.215 78.5696 269.707 78.4161 270.094 78.1093C270.48 77.8025 270.766 77.3991 270.952 76.8991C271.137 76.3991 271.23 75.8574 271.23 75.2741C271.23 74.6908 271.137 74.1472 270.952 73.6434C270.766 73.1396 270.48 72.7324 270.094 72.4218C269.707 72.1112 269.215 71.9559 268.616 71.9559C268.018 71.9559 267.526 72.1112 267.139 72.4218C266.753 72.7324 266.467 73.1396 266.281 73.6434C266.096 74.1472 266.003 74.6908 266.003 75.2741C266.003 75.8574 266.096 76.3991 266.281 76.8991C266.467 77.3991 266.753 77.8025 267.139 78.1093C267.526 78.4161 268.018 78.5696 268.616 78.5696ZM278.141 83.0468C277.493 83.0468 276.936 82.9635 276.47 82.7968C276.004 82.634 275.616 82.418 275.305 82.1491C274.999 81.884 274.754 81.5999 274.572 81.2968L275.641 80.5468C275.762 80.7059 275.915 80.8877 276.101 81.0923C276.286 81.3006 276.54 81.4805 276.862 81.6321C277.188 81.7874 277.614 81.865 278.141 81.865C278.845 81.865 279.427 81.6946 279.885 81.3536C280.343 81.0127 280.572 80.4786 280.572 79.7514V77.9786H280.459C280.36 78.1377 280.22 78.3347 280.038 78.5696C279.86 78.8006 279.603 79.0071 279.266 79.1889C278.932 79.3669 278.482 79.4559 277.913 79.4559C277.209 79.4559 276.576 79.2893 276.016 78.9559C275.459 78.6226 275.018 78.1377 274.692 77.5014C274.37 76.865 274.209 76.0923 274.209 75.1832C274.209 74.2893 274.366 73.5108 274.68 72.848C274.995 72.1813 275.432 71.6661 275.993 71.3025C276.554 70.9351 277.201 70.7514 277.936 70.7514C278.504 70.7514 278.955 70.8461 279.288 71.0355C279.625 71.2211 279.883 71.4332 280.061 71.6718C280.243 71.9067 280.383 72.0999 280.482 72.2514H280.618V70.865H281.913V79.8423C281.913 80.5923 281.743 81.2021 281.402 81.6718C281.065 82.1453 280.61 82.4919 280.038 82.7116C279.47 82.9351 278.838 83.0468 278.141 83.0468ZM278.095 78.2514C278.633 78.2514 279.088 78.1283 279.459 77.8821C279.83 77.6358 280.112 77.2817 280.305 76.8196C280.499 76.3574 280.595 75.8044 280.595 75.1605C280.595 74.5317 280.5 73.9768 280.311 73.4957C280.122 73.0146 279.841 72.6377 279.47 72.365C279.099 72.0923 278.641 71.9559 278.095 71.9559C277.527 71.9559 277.054 72.0999 276.675 72.3877C276.3 72.6756 276.018 73.062 275.828 73.5468C275.643 74.0317 275.55 74.5696 275.55 75.1605C275.55 75.7665 275.644 76.3025 275.834 76.7684C276.027 77.2305 276.311 77.5942 276.686 77.8593C277.065 78.1207 277.535 78.2514 278.095 78.2514ZM284.368 79.5923V70.865H285.709V79.5923H284.368ZM285.05 69.4105C284.788 69.4105 284.563 69.3215 284.374 69.1434C284.188 68.9654 284.095 68.7514 284.095 68.5014C284.095 68.2514 284.188 68.0374 284.374 67.8593C284.563 67.6813 284.788 67.5923 285.05 67.5923C285.311 67.5923 285.535 67.6813 285.72 67.8593C285.91 68.0374 286.004 68.2514 286.004 68.5014C286.004 68.7514 285.91 68.9654 285.72 69.1434C285.535 69.3215 285.311 69.4105 285.05 69.4105ZM290.733 79.7968C290.18 79.7968 289.678 79.6927 289.227 79.4843C288.777 79.2722 288.419 78.9673 288.153 78.5696C287.888 78.168 287.756 77.6832 287.756 77.115C287.756 76.615 287.854 76.2097 288.051 75.8991C288.248 75.5847 288.511 75.3385 288.841 75.1605C289.17 74.9824 289.534 74.8499 289.932 74.7627C290.333 74.6718 290.737 74.5999 291.142 74.5468C291.672 74.4786 292.102 74.4275 292.432 74.3934C292.765 74.3555 293.008 74.293 293.159 74.2059C293.314 74.1188 293.392 73.9673 293.392 73.7514V73.7059C293.392 73.1453 293.239 72.7097 292.932 72.3991C292.629 72.0885 292.169 71.9332 291.551 71.9332C290.911 71.9332 290.409 72.0733 290.045 72.3536C289.682 72.634 289.426 72.9332 289.278 73.2514L288.006 72.7968C288.233 72.2665 288.536 71.8536 288.915 71.5582C289.297 71.259 289.714 71.0506 290.165 70.9332C290.619 70.812 291.066 70.7514 291.506 70.7514C291.786 70.7514 292.108 70.7855 292.472 70.8536C292.839 70.918 293.193 71.0525 293.534 71.2571C293.879 71.4616 294.165 71.7703 294.392 72.1832C294.619 72.5961 294.733 73.1491 294.733 73.8423V79.5923H293.392V78.4105H293.324C293.233 78.5999 293.081 78.8025 292.869 79.0184C292.657 79.2343 292.375 79.418 292.023 79.5696C291.67 79.7211 291.241 79.7968 290.733 79.7968ZM290.938 78.5923C291.468 78.5923 291.915 78.4881 292.278 78.2798C292.646 78.0715 292.922 77.8025 293.108 77.473C293.297 77.1434 293.392 76.7968 293.392 76.4332V75.2059C293.335 75.2741 293.21 75.3366 293.017 75.3934C292.828 75.4465 292.608 75.4938 292.358 75.5355C292.112 75.5733 291.871 75.6074 291.636 75.6377C291.405 75.6643 291.218 75.687 291.074 75.7059C290.725 75.7514 290.4 75.8252 290.097 75.9275C289.797 76.026 289.555 76.1756 289.369 76.3764C289.188 76.5733 289.097 76.8423 289.097 77.1832C289.097 77.6491 289.269 78.0014 289.614 78.24C289.962 78.4749 290.403 78.5923 290.938 78.5923Z" fill="#D6D6D6"/>
</svg>
