<svg width="62" height="62" viewBox="0 0 62 62" fill="none" xmlns="http://www.w3.org/2000/svg">
<rect width="62" height="62" fill="#153D5C"/>
<path d="M0 62L4.35807 46.0789C1.66883 41.4186 0.255749 36.1357 0.258333 30.7184C0.266083 13.7821 14.0481 0 30.9818 0C39.1994 0.00258333 46.9132 3.20333 52.7154 9.01067C58.515 14.818 61.708 22.537 61.7054 30.7468C61.6976 47.6857 47.9156 61.4678 30.9818 61.4678C25.841 61.4652 20.7751 60.1762 16.2879 57.7272L0 62ZM17.0422 52.1652C21.3719 54.7357 25.5052 56.2753 30.9715 56.2779C45.0455 56.2779 56.5103 44.8234 56.518 30.7417C56.5232 16.6315 45.1126 5.1925 30.9922 5.18733C16.9079 5.18733 5.45082 16.6418 5.44565 30.721C5.44307 36.4689 7.1274 40.7727 9.95614 45.2755L7.3754 54.6995L17.0422 52.1652ZM46.4586 38.0499C46.2674 37.7296 45.7559 37.5384 44.9861 37.1535C44.2188 36.7686 40.4446 34.9112 39.7393 34.6554C39.0367 34.3997 38.5252 34.2705 38.0111 35.0403C37.4996 35.8076 36.0271 37.5384 35.5802 38.0499C35.1333 38.5614 34.6838 38.626 33.9165 38.2411C33.1493 37.8562 30.6744 37.0476 27.7424 34.4307C25.4613 32.395 23.919 29.8814 23.4721 29.1116C23.0252 28.3443 23.4256 27.9284 23.8079 27.5461C24.1541 27.2025 24.5752 26.6497 24.9601 26.2002C25.3502 25.7558 25.4768 25.4355 25.7351 24.9214C25.9909 24.4099 25.8643 23.9604 25.6705 23.5755C25.4768 23.1932 23.9423 19.4137 23.3042 17.8767C22.679 16.3809 22.0461 16.5824 21.576 16.5592L20.1035 16.5333C19.592 16.5333 18.7601 16.7245 18.0575 17.4943C17.3548 18.2642 15.3708 20.119 15.3708 23.8984C15.3708 27.6778 18.122 31.3281 18.5044 31.8396C18.8893 32.3511 23.9164 40.1063 31.6173 43.431C33.4489 44.2215 34.8801 44.6942 35.9935 45.0482C37.8328 45.632 39.5068 45.5493 40.8295 45.353C42.3046 45.1334 45.371 43.4956 46.0117 41.7027C46.6523 39.9073 46.6523 38.3703 46.4586 38.0499Z" fill="#D6D6D6"/>
</svg>
