<svg width="368" height="162" viewBox="0 0 368 162" fill="none" xmlns="http://www.w3.org/2000/svg">
<path d="M57.4136 26.2241L58.9653 26.5345L60.6722 27.6207L63.4653 29.7931L66.4136 31.9655L69.2067 34.1379L72.155 36.3103L74.017 37.7069L76.655 39.7241L83.4825 44.8448L85.4998 46.3965L88.4481 48.5689L90.4653 50.1207L93.4136 52.2931L95.4308 53.8448L98.6894 56.3276L100.862 57.8793L102.879 59.431L106.138 61.9138L108.31 63.4655L110.327 65.0172L116.534 69.6724L119.793 72.1552L122.276 74.0172L122.586 74.4827V120.879L122.276 122.897L121.345 124.293L120.258 124.914L119.483 125.224H118.086L116.224 124.293L112.965 121.81L108 118.086L108.155 119.172V125.845L108 132.672L107.069 134.224L105.983 135.155L105.052 135.465H103.345L101.483 134.379L99.155 132.517L97.4481 131.276L95.586 129.879L92.7929 127.707L89.8446 125.534L86.586 123.052L83.6377 120.879L81.6205 119.328L78.6722 117.155L75.8791 114.983L72.9308 112.81L70.9136 111.259L67.9653 109.086L65.9481 107.534L56.6377 100.552L53.3791 98.0689L50.4308 95.8965L48.4136 94.3448L45.155 91.8621L42.2067 89.6896L39.5687 87.6724L39.4136 87.5172V78.6724L39.5687 39.4138L40.1894 38.1724L41.4308 37.0862L42.6722 36.6207L44.2239 36.7758L45.6205 37.5517L48.8791 40.0345L51.9825 42.3621L53.6894 43.7586L53.8446 43.6034V29.7931L54.3101 28.3965L55.2412 27.1552L56.6377 26.3793L57.4136 26.2241ZM61.4481 38.0172V49.6552L63.9308 51.5172L65.9481 53.0689L69.2067 55.5517L72.155 57.7241L74.7929 59.7414L77.2756 61.6034L80.2239 63.7758L82.2412 65.3276L84.1032 66.7241L86.1205 68.2758L91.086 72L93.4136 73.7069L95.8963 75.5689L98.5343 77.5862L101.483 79.7586L103.5 81.3103L107.845 84.5689L108 85.5V108.31L108.62 109.086L110.948 110.793L113.896 112.965L114.827 113.586L114.983 78.0517L113.431 76.8103L110.483 74.6379L107.689 72.4655L104.741 70.2931L102.724 68.7414L99.4653 66.2586L96.517 64.0862L94.4998 62.5345L92.017 60.6724L89.0687 58.5L87.0515 56.9483L84.1032 54.7758L82.086 53.2241L78.9825 50.8965L75.7239 48.4138L71.3791 45.1552L68.4308 42.9827L65.1722 40.5L61.7584 38.0172H61.4481ZM47.017 48.2586V83.9483L49.4998 85.8103L51.6722 87.5172L54.4653 89.5345L59.1205 93.1034L64.086 96.8276L67.0343 99L69.6722 101.017L76.4998 106.138L79.1377 108.155L90.9308 117L93.2584 118.707L97.9136 122.276L100.086 123.983H100.552V112.5L98.9998 111.103L97.2929 109.862L94.4998 107.69L91.5515 105.517L88.9136 103.5L83.3274 99.3103L81.3101 97.7586L78.3619 95.5862L75.1032 93.1034L70.1377 89.3793L67.1894 87.2069L64.3963 85.0345L61.4481 82.862L56.4825 79.1379L54.3101 77.431H53.9998V53.3793L52.2929 51.9827L49.3446 49.8103L47.4825 48.4138L47.017 48.2586ZM61.4481 59.1207V73.5517L63.9308 75.4138L66.5687 77.431L69.0515 79.2931L71.0687 80.8448L74.017 83.0172L79.6032 87.2069L82.8619 89.6896L85.3446 91.5517L88.2929 93.7241L90.3101 95.2758L93.2584 97.4483L95.7412 99.3103L99.7756 102.414L100.552 102.879V88.2931L98.8446 87.0517L96.6722 85.3448L93.7239 83.1724L90.9308 81L84.7239 76.3448L81.4653 73.862L79.7584 72.6207L77.1205 70.6034L74.1722 68.431L70.9136 65.9483L69.2067 64.7069L66.7239 62.8448L63.7756 60.6724L61.7584 59.1207H61.4481Z" fill="#45172A"/>
<path d="M42.6722 36.6207L44.2239 36.7758L45.6205 37.5517L48.8791 40.0345L51.9825 42.362L53.6894 43.7586L54.3101 43.9138L55.7067 45.1551L57.4136 46.3965L59.8963 48.2586L60.9825 49.0345H61.4481L61.6032 49.6551L63.3101 50.8965L65.3274 52.4483L68.4308 54.7758L71.6894 57.2586L74.6377 59.431L76.655 60.9827L79.6032 63.1551L82.2412 65.1724L84.1032 66.5689L86.1205 68.1207L91.086 71.8448L93.4136 73.5517L95.8963 75.4138L98.5343 77.431L101.483 79.6034L103.5 81.1551L105.983 83.0172L108 84.5689L108.155 85.5V107.845L108 108.155L107.224 107.845L102.258 104.121L100.552 102.879L100.396 100.397L100.552 88.2931L99.7756 87.9827L97.2929 85.9655L94.3446 83.7931L91.5515 81.6207L84.7239 76.5L81.4653 74.0172L79.7584 72.7758L77.1205 70.7586L74.1722 68.5862L70.9136 66.1034L69.2067 64.862L66.7239 63L61.4481 59.1207L61.2929 59.431L60.9825 58.8103L58.1894 56.7931L55.2412 54.6207L53.9998 53.6896L53.2239 52.9138L50.4308 50.7414L48.2584 49.1896L47.017 48.2586L47.1722 83.9482L49.3446 85.5L51.0515 86.8965L53.8446 88.9138L55.8618 90.4655L58.9653 92.7931L61.6032 94.8103L64.086 96.6724L67.0343 98.8448L69.6722 100.862L76.4998 105.983L79.1377 108L90.9308 116.845L93.2584 118.552L97.9136 122.121L100.086 123.828L100.552 123.983L100.396 122.431V118.241L100.552 112.655L100.707 112.965L101.483 113.276L104.431 115.293L106.293 116.845L108 118.086L108.155 119.172V125.845L108 132.672L107.069 134.224L105.983 135.155L105.052 135.465H103.345L101.483 134.379L99.155 132.517L97.4481 131.276L95.586 129.879L92.7929 127.707L89.8446 125.534L86.586 123.052L83.6377 120.879L81.6205 119.328L78.6722 117.155L75.8791 114.983L72.9308 112.81L70.9136 111.259L67.9653 109.086L65.9481 107.534L56.6377 100.552L53.3791 98.0689L50.4308 95.8965L48.4136 94.3448L45.155 91.862L42.2067 89.6896L39.5687 87.6724L39.4136 87.5172V78.6724L39.5687 39.4138L40.1894 38.1724L41.4308 37.0862L42.6722 36.6207Z" fill="#244B6D"/>
<path d="M170.773 94H169.364C169.28 93.5947 169.134 93.2386 168.926 92.9318C168.722 92.625 168.472 92.3674 168.176 92.1591C167.884 91.947 167.561 91.7879 167.205 91.6818C166.848 91.5758 166.477 91.5227 166.091 91.5227C165.386 91.5227 164.748 91.7008 164.176 92.0568C163.608 92.4129 163.155 92.9375 162.818 93.6307C162.485 94.3239 162.318 95.1742 162.318 96.1818C162.318 97.1894 162.485 98.0398 162.818 98.733C163.155 99.4261 163.608 99.9508 164.176 100.307C164.748 100.663 165.386 100.841 166.091 100.841C166.477 100.841 166.848 100.788 167.205 100.682C167.561 100.576 167.884 100.419 168.176 100.21C168.472 99.9981 168.722 99.7386 168.926 99.4318C169.134 99.1212 169.28 98.7652 169.364 98.3636H170.773C170.667 98.9583 170.473 99.4905 170.193 99.9602C169.913 100.43 169.564 100.83 169.148 101.159C168.731 101.485 168.263 101.733 167.744 101.903C167.229 102.074 166.678 102.159 166.091 102.159C165.098 102.159 164.216 101.917 163.443 101.432C162.67 100.947 162.063 100.258 161.619 99.3636C161.176 98.4697 160.955 97.4091 160.955 96.1818C160.955 94.9545 161.176 93.8939 161.619 93C162.063 92.1061 162.67 91.4167 163.443 90.9318C164.216 90.447 165.098 90.2045 166.091 90.2045C166.678 90.2045 167.229 90.2898 167.744 90.4602C168.263 90.6307 168.731 90.8807 169.148 91.2102C169.564 91.536 169.913 91.9337 170.193 92.4034C170.473 92.8693 170.667 93.4015 170.773 94ZM176.413 102.182C175.625 102.182 174.934 101.994 174.339 101.619C173.749 101.244 173.286 100.72 172.953 100.045C172.624 99.3712 172.459 98.5833 172.459 97.6818C172.459 96.7727 172.624 95.9792 172.953 95.3011C173.286 94.6231 173.749 94.0966 174.339 93.7216C174.934 93.3466 175.625 93.1591 176.413 93.1591C177.201 93.1591 177.891 93.3466 178.482 93.7216C179.076 94.0966 179.538 94.6231 179.868 95.3011C180.201 95.9792 180.368 96.7727 180.368 97.6818C180.368 98.5833 180.201 99.3712 179.868 100.045C179.538 100.72 179.076 101.244 178.482 101.619C177.891 101.994 177.201 102.182 176.413 102.182ZM176.413 100.977C177.012 100.977 177.504 100.824 177.891 100.517C178.277 100.21 178.563 99.8068 178.749 99.3068C178.934 98.8068 179.027 98.2652 179.027 97.6818C179.027 97.0985 178.934 96.5549 178.749 96.0511C178.563 95.5473 178.277 95.1402 177.891 94.8295C177.504 94.5189 177.012 94.3636 176.413 94.3636C175.815 94.3636 175.322 94.5189 174.936 94.8295C174.55 95.1402 174.264 95.5473 174.078 96.0511C173.893 96.5549 173.8 97.0985 173.8 97.6818C173.8 98.2652 173.893 98.8068 174.078 99.3068C174.264 99.8068 174.55 100.21 174.936 100.517C175.322 100.824 175.815 100.977 176.413 100.977ZM183.756 96.75V102H182.415V93.2727H183.71V94.6364H183.824C184.028 94.1932 184.339 93.8371 184.756 93.5682C185.172 93.2955 185.71 93.1591 186.369 93.1591C186.96 93.1591 187.477 93.2803 187.92 93.5227C188.364 93.7614 188.708 94.125 188.955 94.6136C189.201 95.0985 189.324 95.7121 189.324 96.4545V102H187.983V96.5455C187.983 95.8598 187.805 95.3258 187.449 94.9432C187.093 94.5568 186.604 94.3636 185.983 94.3636C185.555 94.3636 185.172 94.4564 184.835 94.642C184.502 94.8277 184.239 95.0985 184.045 95.4545C183.852 95.8106 183.756 96.2424 183.756 96.75ZM197.956 95.2273L196.751 95.5682C196.676 95.3674 196.564 95.1723 196.416 94.983C196.272 94.7898 196.075 94.6307 195.825 94.5057C195.575 94.3807 195.255 94.3182 194.865 94.3182C194.331 94.3182 193.886 94.4413 193.53 94.6875C193.178 94.9299 193.001 95.2386 193.001 95.6136C193.001 95.947 193.123 96.2102 193.365 96.4034C193.607 96.5966 193.986 96.7576 194.501 96.8864L195.797 97.2045C196.577 97.3939 197.159 97.6837 197.541 98.0739C197.924 98.4602 198.115 98.9583 198.115 99.5682C198.115 100.068 197.971 100.515 197.683 100.909C197.399 101.303 197.001 101.614 196.49 101.841C195.979 102.068 195.384 102.182 194.706 102.182C193.816 102.182 193.079 101.989 192.496 101.602C191.912 101.216 191.543 100.652 191.388 99.9091L192.661 99.5909C192.782 100.061 193.011 100.413 193.348 100.648C193.689 100.883 194.134 101 194.683 101C195.308 101 195.804 100.867 196.172 100.602C196.543 100.333 196.729 100.011 196.729 99.6364C196.729 99.3333 196.623 99.0795 196.411 98.875C196.198 98.6667 195.873 98.5114 195.433 98.4091L193.979 98.0682C193.179 97.8788 192.592 97.5852 192.217 97.1875C191.846 96.786 191.661 96.2841 191.661 95.6818C191.661 95.1894 191.799 94.7538 192.075 94.375C192.356 93.9962 192.736 93.6989 193.217 93.483C193.702 93.267 194.251 93.1591 194.865 93.1591C195.729 93.1591 196.407 93.3485 196.899 93.7273C197.395 94.1061 197.748 94.6061 197.956 95.2273ZM205.634 98.4318V93.2727H206.974V102H205.634V100.523H205.543C205.338 100.966 205.02 101.343 204.588 101.653C204.156 101.96 203.611 102.114 202.952 102.114C202.406 102.114 201.921 101.994 201.497 101.756C201.073 101.513 200.74 101.15 200.497 100.665C200.255 100.176 200.134 99.5606 200.134 98.8182V93.2727H201.474V98.7273C201.474 99.3636 201.652 99.8712 202.009 100.25C202.368 100.629 202.827 100.818 203.384 100.818C203.717 100.818 204.056 100.733 204.401 100.562C204.749 100.392 205.041 100.131 205.276 99.7784C205.514 99.4261 205.634 98.9773 205.634 98.4318ZM210.771 90.3636V102H209.43V90.3636H210.771ZM217.023 93.2727V94.4091H212.5V93.2727H217.023ZM213.818 91.1818H215.159V99.5C215.159 99.8788 215.214 100.163 215.324 100.352C215.438 100.538 215.581 100.663 215.756 100.727C215.934 100.788 216.121 100.818 216.318 100.818C216.466 100.818 216.587 100.811 216.682 100.795C216.777 100.777 216.852 100.761 216.909 100.75L217.182 101.955C217.091 101.989 216.964 102.023 216.801 102.057C216.638 102.095 216.432 102.114 216.182 102.114C215.803 102.114 215.432 102.032 215.068 101.869C214.708 101.706 214.409 101.458 214.17 101.125C213.936 100.792 213.818 100.371 213.818 99.8636V91.1818ZM222.491 102.182C221.704 102.182 221.012 101.994 220.418 101.619C219.827 101.244 219.365 100.72 219.031 100.045C218.702 99.3712 218.537 98.5833 218.537 97.6818C218.537 96.7727 218.702 95.9792 219.031 95.3011C219.365 94.6231 219.827 94.0966 220.418 93.7216C221.012 93.3466 221.704 93.1591 222.491 93.1591C223.279 93.1591 223.969 93.3466 224.56 93.7216C225.154 94.0966 225.616 94.6231 225.946 95.3011C226.279 95.9792 226.446 96.7727 226.446 97.6818C226.446 98.5833 226.279 99.3712 225.946 100.045C225.616 100.72 225.154 101.244 224.56 101.619C223.969 101.994 223.279 102.182 222.491 102.182ZM222.491 100.977C223.09 100.977 223.582 100.824 223.969 100.517C224.355 100.21 224.641 99.8068 224.827 99.3068C225.012 98.8068 225.105 98.2652 225.105 97.6818C225.105 97.0985 225.012 96.5549 224.827 96.0511C224.641 95.5473 224.355 95.1402 223.969 94.8295C223.582 94.5189 223.09 94.3636 222.491 94.3636C221.893 94.3636 221.401 94.5189 221.014 94.8295C220.628 95.1402 220.342 95.5473 220.156 96.0511C219.971 96.5549 219.878 97.0985 219.878 97.6818C219.878 98.2652 219.971 98.8068 220.156 99.3068C220.342 99.8068 220.628 100.21 221.014 100.517C221.401 100.824 221.893 100.977 222.491 100.977ZM228.493 102V93.2727H229.788V94.5909H229.879C230.038 94.1591 230.326 93.8087 230.743 93.5398C231.16 93.2708 231.629 93.1364 232.152 93.1364C232.25 93.1364 232.374 93.1383 232.521 93.142C232.669 93.1458 232.781 93.1515 232.857 93.1591V94.5227C232.811 94.5114 232.707 94.4943 232.544 94.4716C232.385 94.4451 232.216 94.4318 232.038 94.4318C231.614 94.4318 231.235 94.5208 230.902 94.6989C230.572 94.8731 230.311 95.1155 230.118 95.4261C229.929 95.733 229.834 96.0833 229.834 96.4773V102H228.493ZM234.446 102V93.2727H235.787V102H234.446ZM235.128 91.8182C234.866 91.8182 234.641 91.7292 234.452 91.5511C234.266 91.3731 234.173 91.1591 234.173 90.9091C234.173 90.6591 234.266 90.4451 234.452 90.267C234.641 90.089 234.866 90 235.128 90C235.389 90 235.613 90.089 235.798 90.267C235.988 90.4451 236.082 90.6591 236.082 90.9091C236.082 91.1591 235.988 91.3731 235.798 91.5511C235.613 91.7292 235.389 91.8182 235.128 91.8182ZM240.811 102.205C240.258 102.205 239.756 102.1 239.305 101.892C238.855 101.68 238.497 101.375 238.232 100.977C237.966 100.576 237.834 100.091 237.834 99.5227C237.834 99.0227 237.932 98.6174 238.129 98.3068C238.326 97.9924 238.589 97.7462 238.919 97.5682C239.249 97.3902 239.612 97.2576 240.01 97.1705C240.411 97.0795 240.815 97.0076 241.22 96.9545C241.75 96.8864 242.18 96.8352 242.51 96.8011C242.843 96.7633 243.086 96.7008 243.237 96.6136C243.393 96.5265 243.47 96.375 243.47 96.1591V96.1136C243.47 95.553 243.317 95.1174 243.01 94.8068C242.707 94.4962 242.247 94.3409 241.629 94.3409C240.989 94.3409 240.487 94.4811 240.124 94.7614C239.76 95.0417 239.504 95.3409 239.357 95.6591L238.084 95.2045C238.311 94.6742 238.614 94.2614 238.993 93.9659C239.375 93.6667 239.792 93.4583 240.243 93.3409C240.697 93.2197 241.144 93.1591 241.584 93.1591C241.864 93.1591 242.186 93.1932 242.55 93.2614C242.917 93.3258 243.271 93.4602 243.612 93.6648C243.957 93.8693 244.243 94.178 244.47 94.5909C244.697 95.0038 244.811 95.5568 244.811 96.25V102H243.47V100.818H243.402C243.311 101.008 243.16 101.21 242.947 101.426C242.735 101.642 242.453 101.826 242.101 101.977C241.749 102.129 241.319 102.205 240.811 102.205ZM241.016 101C241.546 101 241.993 100.896 242.357 100.688C242.724 100.479 243 100.21 243.186 99.8807C243.375 99.5511 243.47 99.2045 243.47 98.8409V97.6136C243.413 97.6818 243.288 97.7443 243.095 97.8011C242.906 97.8542 242.686 97.9015 242.436 97.9432C242.19 97.9811 241.949 98.0152 241.714 98.0455C241.483 98.072 241.296 98.0947 241.152 98.1136C240.804 98.1591 240.478 98.233 240.175 98.3352C239.875 98.4337 239.633 98.5833 239.447 98.7841C239.266 98.9811 239.175 99.25 239.175 99.5909C239.175 100.057 239.347 100.409 239.692 100.648C240.04 100.883 240.482 101 241.016 101ZM255.418 102.182C254.577 102.182 253.851 101.996 253.241 101.625C252.635 101.25 252.168 100.727 251.838 100.057C251.512 99.3826 251.349 98.5985 251.349 97.7045C251.349 96.8106 251.512 96.0227 251.838 95.3409C252.168 94.6553 252.626 94.1212 253.213 93.7386C253.804 93.3523 254.493 93.1591 255.281 93.1591C255.736 93.1591 256.185 93.2348 256.628 93.3864C257.071 93.5379 257.474 93.7841 257.838 94.125C258.202 94.4621 258.491 94.9091 258.707 95.4659C258.923 96.0227 259.031 96.7083 259.031 97.5227V98.0909H252.304V96.9318H257.668C257.668 96.4394 257.569 96 257.372 95.6136C257.179 95.2273 256.902 94.9223 256.543 94.6989C256.187 94.4754 255.766 94.3636 255.281 94.3636C254.747 94.3636 254.285 94.4962 253.895 94.7614C253.509 95.0227 253.211 95.3636 253.003 95.7841C252.795 96.2045 252.69 96.6553 252.69 97.1364V97.9091C252.69 98.5682 252.804 99.1269 253.031 99.5852C253.262 100.04 253.582 100.386 253.991 100.625C254.401 100.86 254.876 100.977 255.418 100.977C255.77 100.977 256.088 100.928 256.372 100.83C256.66 100.727 256.908 100.576 257.116 100.375C257.325 100.17 257.486 99.9167 257.599 99.6136L258.895 99.9773C258.759 100.417 258.529 100.803 258.207 101.136C257.885 101.466 257.488 101.723 257.014 101.909C256.541 102.091 256.009 102.182 255.418 102.182ZM261.071 102V93.2727H262.366V94.6364H262.48C262.662 94.1705 262.955 93.8087 263.361 93.5511C263.766 93.2898 264.253 93.1591 264.821 93.1591C265.397 93.1591 265.876 93.2898 266.259 93.5511C266.645 93.8087 266.946 94.1705 267.162 94.6364H267.253C267.476 94.1856 267.812 93.8277 268.259 93.5625C268.705 93.2936 269.241 93.1591 269.866 93.1591C270.647 93.1591 271.285 93.4034 271.781 93.892C272.277 94.3769 272.526 95.1326 272.526 96.1591V102H271.185V96.1591C271.185 95.5152 271.009 95.0549 270.656 94.7784C270.304 94.5019 269.889 94.3636 269.412 94.3636C268.798 94.3636 268.323 94.5492 267.986 94.9205C267.649 95.2879 267.48 95.7538 267.48 96.3182V102H266.116V96.0227C266.116 95.5265 265.955 95.1269 265.634 94.8239C265.312 94.517 264.897 94.3636 264.389 94.3636C264.041 94.3636 263.715 94.4564 263.412 94.642C263.113 94.8277 262.87 95.0852 262.685 95.4148C262.503 95.7405 262.412 96.1174 262.412 96.5455V102H261.071ZM279.659 102V90.3636H283.591C284.504 90.3636 285.25 90.5284 285.83 90.858C286.413 91.1837 286.845 91.625 287.125 92.1818C287.405 92.7386 287.545 93.3598 287.545 94.0455C287.545 94.7311 287.405 95.3542 287.125 95.9148C286.848 96.4754 286.42 96.9223 285.841 97.2557C285.261 97.5852 284.519 97.75 283.614 97.75H280.795V96.5H283.568C284.193 96.5 284.695 96.392 285.074 96.1761C285.453 95.9602 285.727 95.6686 285.898 95.3011C286.072 94.9299 286.159 94.5114 286.159 94.0455C286.159 93.5795 286.072 93.1629 285.898 92.7955C285.727 92.428 285.451 92.1402 285.068 91.9318C284.686 91.7197 284.178 91.6136 283.545 91.6136H281.068V102H279.659ZM295.815 95.2273L294.611 95.5682C294.535 95.3674 294.423 95.1723 294.276 94.983C294.132 94.7898 293.935 94.6307 293.685 94.5057C293.435 94.3807 293.115 94.3182 292.724 94.3182C292.19 94.3182 291.745 94.4413 291.389 94.6875C291.037 94.9299 290.861 95.2386 290.861 95.6136C290.861 95.947 290.982 96.2102 291.224 96.4034C291.467 96.5966 291.846 96.7576 292.361 96.8864L293.656 97.2045C294.437 97.3939 295.018 97.6837 295.401 98.0739C295.783 98.4602 295.974 98.9583 295.974 99.5682C295.974 100.068 295.83 100.515 295.543 100.909C295.259 101.303 294.861 101.614 294.349 101.841C293.838 102.068 293.243 102.182 292.565 102.182C291.675 102.182 290.938 101.989 290.355 101.602C289.772 101.216 289.402 100.652 289.247 99.9091L290.52 99.5909C290.641 100.061 290.87 100.413 291.207 100.648C291.548 100.883 291.993 101 292.543 101C293.168 101 293.664 100.867 294.031 100.602C294.402 100.333 294.588 100.011 294.588 99.6364C294.588 99.3333 294.482 99.0795 294.27 98.875C294.058 98.6667 293.732 98.5114 293.293 98.4091L291.838 98.0682C291.039 97.8788 290.452 97.5852 290.077 97.1875C289.705 96.786 289.52 96.2841 289.52 95.6818C289.52 95.1894 289.658 94.7538 289.935 94.375C290.215 93.9962 290.596 93.6989 291.077 93.483C291.562 93.267 292.111 93.1591 292.724 93.1591C293.588 93.1591 294.266 93.3485 294.759 93.7273C295.255 94.1061 295.607 94.6061 295.815 95.2273ZM297.993 102V93.2727H299.334V102H297.993ZM298.675 91.8182C298.413 91.8182 298.188 91.7292 297.999 91.5511C297.813 91.3731 297.72 91.1591 297.72 90.9091C297.72 90.6591 297.813 90.4451 297.999 90.267C298.188 90.089 298.413 90 298.675 90C298.936 90 299.16 90.089 299.345 90.267C299.535 90.4451 299.629 90.6591 299.629 90.9091C299.629 91.1591 299.535 91.3731 299.345 91.5511C299.16 91.7292 298.936 91.8182 298.675 91.8182ZM305.335 102.182C304.517 102.182 303.813 101.989 303.222 101.602C302.631 101.216 302.176 100.684 301.858 100.006C301.54 99.3277 301.381 98.553 301.381 97.6818C301.381 96.7955 301.544 96.0133 301.869 95.3352C302.199 94.6534 302.657 94.1212 303.244 93.7386C303.835 93.3523 304.525 93.1591 305.312 93.1591C305.926 93.1591 306.479 93.2727 306.972 93.5C307.464 93.7273 307.867 94.0455 308.182 94.4545C308.496 94.8636 308.691 95.3409 308.767 95.8864H307.426C307.324 95.4886 307.097 95.1364 306.744 94.8295C306.396 94.5189 305.926 94.3636 305.335 94.3636C304.813 94.3636 304.354 94.5 303.96 94.7727C303.57 95.0417 303.265 95.4223 303.045 95.9148C302.83 96.4034 302.722 96.9773 302.722 97.6364C302.722 98.3106 302.828 98.8977 303.04 99.3977C303.256 99.8977 303.559 100.286 303.949 100.562C304.343 100.839 304.805 100.977 305.335 100.977C305.684 100.977 306 100.917 306.284 100.795C306.568 100.674 306.809 100.5 307.006 100.273C307.203 100.045 307.343 99.7727 307.426 99.4545H308.767C308.691 99.9697 308.504 100.434 308.205 100.847C307.909 101.256 307.517 101.581 307.028 101.824C306.544 102.062 305.979 102.182 305.335 102.182ZM314.273 102.182C313.485 102.182 312.794 101.994 312.199 101.619C311.608 101.244 311.146 100.72 310.812 100.045C310.483 99.3712 310.318 98.5833 310.318 97.6818C310.318 96.7727 310.483 95.9792 310.812 95.3011C311.146 94.6231 311.608 94.0966 312.199 93.7216C312.794 93.3466 313.485 93.1591 314.273 93.1591C315.061 93.1591 315.75 93.3466 316.341 93.7216C316.936 94.0966 317.398 94.6231 317.727 95.3011C318.061 95.9792 318.227 96.7727 318.227 97.6818C318.227 98.5833 318.061 99.3712 317.727 100.045C317.398 100.72 316.936 101.244 316.341 101.619C315.75 101.994 315.061 102.182 314.273 102.182ZM314.273 100.977C314.871 100.977 315.364 100.824 315.75 100.517C316.136 100.21 316.422 99.8068 316.608 99.3068C316.794 98.8068 316.886 98.2652 316.886 97.6818C316.886 97.0985 316.794 96.5549 316.608 96.0511C316.422 95.5473 316.136 95.1402 315.75 94.8295C315.364 94.5189 314.871 94.3636 314.273 94.3636C313.674 94.3636 313.182 94.5189 312.795 94.8295C312.409 95.1402 312.123 95.5473 311.938 96.0511C311.752 96.5549 311.659 97.0985 311.659 97.6818C311.659 98.2652 311.752 98.8068 311.938 99.3068C312.123 99.8068 312.409 100.21 312.795 100.517C313.182 100.824 313.674 100.977 314.273 100.977ZM321.615 90.3636V102H320.274V90.3636H321.615ZM327.616 102.182C326.829 102.182 326.137 101.994 325.543 101.619C324.952 101.244 324.49 100.72 324.156 100.045C323.827 99.3712 323.662 98.5833 323.662 97.6818C323.662 96.7727 323.827 95.9792 324.156 95.3011C324.49 94.6231 324.952 94.0966 325.543 93.7216C326.137 93.3466 326.829 93.1591 327.616 93.1591C328.404 93.1591 329.094 93.3466 329.685 93.7216C330.279 94.0966 330.741 94.6231 331.071 95.3011C331.404 95.9792 331.571 96.7727 331.571 97.6818C331.571 98.5833 331.404 99.3712 331.071 100.045C330.741 100.72 330.279 101.244 329.685 101.619C329.094 101.994 328.404 102.182 327.616 102.182ZM327.616 100.977C328.215 100.977 328.707 100.824 329.094 100.517C329.48 100.21 329.766 99.8068 329.952 99.3068C330.137 98.8068 330.23 98.2652 330.23 97.6818C330.23 97.0985 330.137 96.5549 329.952 96.0511C329.766 95.5473 329.48 95.1402 329.094 94.8295C328.707 94.5189 328.215 94.3636 327.616 94.3636C327.018 94.3636 326.526 94.5189 326.139 94.8295C325.753 95.1402 325.467 95.5473 325.281 96.0511C325.096 96.5549 325.003 97.0985 325.003 97.6818C325.003 98.2652 325.096 98.8068 325.281 99.3068C325.467 99.8068 325.753 100.21 326.139 100.517C326.526 100.824 327.018 100.977 327.616 100.977ZM337.141 105.455C336.493 105.455 335.936 105.371 335.47 105.205C335.004 105.042 334.616 104.826 334.305 104.557C333.999 104.292 333.754 104.008 333.572 103.705L334.641 102.955C334.762 103.114 334.915 103.295 335.101 103.5C335.286 103.708 335.54 103.888 335.862 104.04C336.188 104.195 336.614 104.273 337.141 104.273C337.845 104.273 338.427 104.102 338.885 103.761C339.343 103.42 339.572 102.886 339.572 102.159V100.386H339.459C339.36 100.545 339.22 100.742 339.038 100.977C338.86 101.208 338.603 101.415 338.266 101.597C337.932 101.775 337.482 101.864 336.913 101.864C336.209 101.864 335.576 101.697 335.016 101.364C334.459 101.03 334.018 100.545 333.692 99.9091C333.37 99.2727 333.209 98.5 333.209 97.5909C333.209 96.697 333.366 95.9186 333.68 95.2557C333.995 94.589 334.432 94.0739 334.993 93.7102C335.554 93.3428 336.201 93.1591 336.936 93.1591C337.504 93.1591 337.955 93.2538 338.288 93.4432C338.625 93.6288 338.883 93.8409 339.061 94.0795C339.243 94.3144 339.383 94.5076 339.482 94.6591H339.618V93.2727H340.913V102.25C340.913 103 340.743 103.61 340.402 104.08C340.065 104.553 339.61 104.9 339.038 105.119C338.47 105.343 337.838 105.455 337.141 105.455ZM337.095 100.659C337.633 100.659 338.088 100.536 338.459 100.29C338.83 100.044 339.112 99.6894 339.305 99.2273C339.499 98.7652 339.595 98.2121 339.595 97.5682C339.595 96.9394 339.5 96.3845 339.311 95.9034C339.122 95.4223 338.841 95.0455 338.47 94.7727C338.099 94.5 337.641 94.3636 337.095 94.3636C336.527 94.3636 336.054 94.5076 335.675 94.7955C335.3 95.0833 335.018 95.4697 334.828 95.9545C334.643 96.4394 334.55 96.9773 334.55 97.5682C334.55 98.1742 334.644 98.7102 334.834 99.1761C335.027 99.6383 335.311 100.002 335.686 100.267C336.065 100.528 336.535 100.659 337.095 100.659ZM343.368 102V93.2727H344.709V102H343.368ZM344.05 91.8182C343.788 91.8182 343.563 91.7292 343.374 91.5511C343.188 91.3731 343.095 91.1591 343.095 90.9091C343.095 90.6591 343.188 90.4451 343.374 90.267C343.563 90.089 343.788 90 344.05 90C344.311 90 344.535 90.089 344.72 90.267C344.91 90.4451 345.004 90.6591 345.004 90.9091C345.004 91.1591 344.91 91.3731 344.72 91.5511C344.535 91.7292 344.311 91.8182 344.05 91.8182ZM349.733 102.205C349.18 102.205 348.678 102.1 348.227 101.892C347.777 101.68 347.419 101.375 347.153 100.977C346.888 100.576 346.756 100.091 346.756 99.5227C346.756 99.0227 346.854 98.6174 347.051 98.3068C347.248 97.9924 347.511 97.7462 347.841 97.5682C348.17 97.3902 348.534 97.2576 348.932 97.1705C349.333 97.0795 349.737 97.0076 350.142 96.9545C350.672 96.8864 351.102 96.8352 351.432 96.8011C351.765 96.7633 352.008 96.7008 352.159 96.6136C352.314 96.5265 352.392 96.375 352.392 96.1591V96.1136C352.392 95.553 352.239 95.1174 351.932 94.8068C351.629 94.4962 351.169 94.3409 350.551 94.3409C349.911 94.3409 349.409 94.4811 349.045 94.7614C348.682 95.0417 348.426 95.3409 348.278 95.6591L347.006 95.2045C347.233 94.6742 347.536 94.2614 347.915 93.9659C348.297 93.6667 348.714 93.4583 349.165 93.3409C349.619 93.2197 350.066 93.1591 350.506 93.1591C350.786 93.1591 351.108 93.1932 351.472 93.2614C351.839 93.3258 352.193 93.4602 352.534 93.6648C352.879 93.8693 353.165 94.178 353.392 94.5909C353.619 95.0038 353.733 95.5568 353.733 96.25V102H352.392V100.818H352.324C352.233 101.008 352.081 101.21 351.869 101.426C351.657 101.642 351.375 101.826 351.023 101.977C350.67 102.129 350.241 102.205 349.733 102.205ZM349.938 101C350.468 101 350.915 100.896 351.278 100.688C351.646 100.479 351.922 100.21 352.108 99.8807C352.297 99.5511 352.392 99.2045 352.392 98.8409V97.6136C352.335 97.6818 352.21 97.7443 352.017 97.8011C351.828 97.8542 351.608 97.9015 351.358 97.9432C351.112 97.9811 350.871 98.0152 350.636 98.0455C350.405 98.072 350.218 98.0947 350.074 98.1136C349.725 98.1591 349.4 98.233 349.097 98.3352C348.797 98.4337 348.555 98.5833 348.369 98.7841C348.188 98.9811 348.097 99.25 348.097 99.5909C348.097 100.057 348.269 100.409 348.614 100.648C348.962 100.883 349.403 101 349.938 101Z" fill="black"/>
<path d="M165.697 59.6364V80H162.009V59.6364H165.697ZM186.426 59.6364V80H183.145L173.55 66.1293H173.381V80H169.692V59.6364H172.993L182.578 73.517H182.757V59.6364H186.426ZM207.18 59.6364V80H203.899L194.304 66.1293H194.135V80H190.446V59.6364H193.747L203.332 73.517H203.511V59.6364H207.18ZM229.396 69.8182C229.396 72.0123 228.985 73.8916 228.163 75.456C227.348 77.0137 226.234 78.2069 224.822 79.0355C223.417 79.8641 221.823 80.2784 220.039 80.2784C218.256 80.2784 216.659 79.8641 215.247 79.0355C213.842 78.2003 212.728 77.0038 211.906 75.446C211.091 73.8816 210.683 72.0057 210.683 69.8182C210.683 67.6241 211.091 65.7481 211.906 64.1903C212.728 62.6259 213.842 61.4295 215.247 60.6009C216.659 59.7723 218.256 59.358 220.039 59.358C221.823 59.358 223.417 59.7723 224.822 60.6009C226.234 61.4295 227.348 62.6259 228.163 64.1903C228.985 65.7481 229.396 67.6241 229.396 69.8182ZM225.687 69.8182C225.687 68.2737 225.445 66.9711 224.961 65.9105C224.484 64.8433 223.821 64.0379 222.973 63.4943C222.124 62.9441 221.146 62.669 220.039 62.669C218.932 62.669 217.955 62.9441 217.106 63.4943C216.258 64.0379 215.592 64.8433 215.108 65.9105C214.63 66.9711 214.392 68.2737 214.392 69.8182C214.392 71.3627 214.63 72.6686 215.108 73.7358C215.592 74.7964 216.258 75.6018 217.106 76.152C217.955 76.6955 218.932 76.9673 220.039 76.9673C221.146 76.9673 222.124 76.6955 222.973 76.152C223.821 75.6018 224.484 74.7964 224.961 73.7358C225.445 72.6686 225.687 71.3627 225.687 69.8182ZM234.514 59.6364L239.814 75.6648H240.023L245.312 59.6364H249.369L242.19 80H237.636L230.467 59.6364H234.514ZM252.288 80H248.35L255.519 59.6364H260.073L267.252 80H263.315L257.876 63.8125H257.717L252.288 80ZM252.417 72.0156H263.156V74.9787H252.417V72.0156ZM269.934 80V59.6364H277.571C279.135 59.6364 280.448 59.9081 281.508 60.4517C282.575 60.9953 283.381 61.7576 283.924 62.7386C284.475 63.7131 284.75 64.8499 284.75 66.1491C284.75 67.455 284.471 68.5885 283.914 69.5497C283.364 70.5043 282.552 71.2434 281.478 71.767C280.404 72.2841 279.085 72.5426 277.521 72.5426H272.082V69.4801H277.024C277.939 69.4801 278.688 69.3542 279.271 69.1023C279.854 68.8437 280.285 68.4692 280.564 67.9787C280.849 67.4815 280.991 66.8717 280.991 66.1491C280.991 65.4266 280.849 64.8101 280.564 64.2997C280.279 63.7827 279.844 63.3916 279.261 63.1264C278.678 62.8546 277.925 62.7188 277.004 62.7188H273.623V80H269.934ZM280.454 70.7727L285.495 80H281.379L276.427 70.7727H280.454ZM288.145 80V59.6364H301.39V62.7287H291.834V68.2571H300.703V71.3494H291.834V76.9077H301.469V80H288.145ZM320.132 59.6364H323.792V73.9545C323.785 75.267 323.507 76.3973 322.956 77.3452C322.406 78.2865 321.637 79.0123 320.65 79.5227C319.668 80.0265 318.525 80.2784 317.219 80.2784C316.026 80.2784 314.952 80.0663 313.998 79.642C313.05 79.2112 312.297 78.5748 311.74 77.733C311.184 76.8911 310.905 75.8437 310.905 74.5909H314.574C314.581 75.1411 314.7 75.6151 314.932 76.0128C315.171 76.4105 315.499 76.7154 315.917 76.9276C316.334 77.1397 316.815 77.2457 317.358 77.2457C317.948 77.2457 318.449 77.1231 318.86 76.8778C319.271 76.6259 319.582 76.2547 319.794 75.7642C320.013 75.2737 320.126 74.6705 320.132 73.9545V59.6364ZM327.794 80V59.6364H335.43C336.994 59.6364 338.307 59.9081 339.368 60.4517C340.435 60.9953 341.24 61.7576 341.784 62.7386C342.334 63.7131 342.609 64.8499 342.609 66.1491C342.609 67.455 342.331 68.5885 341.774 69.5497C341.224 70.5043 340.412 71.2434 339.338 71.767C338.264 72.2841 336.945 72.5426 335.38 72.5426H329.941V69.4801H334.883C335.798 69.4801 336.547 69.3542 337.13 69.1023C337.714 68.8437 338.145 68.4692 338.423 67.9787C338.708 67.4815 338.85 66.8717 338.85 66.1491C338.85 65.4266 338.708 64.8101 338.423 64.2997C338.138 63.7827 337.704 63.3916 337.12 63.1264C336.537 62.8546 335.785 62.7188 334.863 62.7188H331.483V80H327.794ZM338.314 70.7727L343.355 80H339.238L334.287 70.7727H338.314ZM348.063 80.2188C347.46 80.2188 346.943 80.0066 346.512 79.5824C346.081 79.1581 345.869 78.6411 345.875 78.0312C345.869 77.4347 346.081 76.9242 346.512 76.5C346.943 76.0758 347.46 75.8636 348.063 75.8636C348.646 75.8636 349.153 76.0758 349.584 76.5C350.022 76.9242 350.244 77.4347 350.25 78.0312C350.244 78.4356 350.138 78.8035 349.932 79.1349C349.733 79.4664 349.468 79.7315 349.137 79.9304C348.812 80.1226 348.454 80.2188 348.063 80.2188Z" fill="black"/>
</svg>
